<?xml version="1.0" encoding="UTF-8" standalone="no"?><!DOCTYPE svg PUBLIC "-//W3C//DTD SVG 1.1//EN" "http://www.w3.org/Graphics/SVG/1.1/DTD/svg11.dtd"><svg width="100%" height="100%" viewBox="0 0 1182 591" version="1.1" xmlns="http://www.w3.org/2000/svg" xmlns:xlink="http://www.w3.org/1999/xlink" xml:space="preserve" xmlns:serif="http://www.serif.com/" style="fill-rule:evenodd;clip-rule:evenodd;stroke-linejoin:round;stroke-miterlimit:2;"><rect x="0" y="0" width="1181.1" height="590.554" style="fill:#1e2f7d;"/><path d="M246.102,432.225l7.433,-0.021l-0.058,-26.108l19.466,-0.509l0.525,-3.733l-20.004,-0.179l-0.05,-23.758l20.696,-0.342l0.471,-4.192l-28.613,0.075l0.134,58.767Z" style="fill:#fff;fill-rule:nonzero;"/><path d="M290.006,421.037c-0.004,-1.229 0.092,-2.295 0.288,-3.216c0.196,-0.917 0.508,-1.634 0.933,-2.129c0.458,-0.534 1.692,-1.067 3.688,-1.613c1.991,-0.546 4.933,-0.817 8.82,-0.829c0.009,3.675 0.05,6.517 0.125,8.521c0.08,2.012 0.117,3.108 0.117,3.304c-1.604,0.954 -3.133,1.646 -4.596,2.079c-1.462,0.429 -3.066,0.638 -4.812,0.642c-1.638,0.004 -2.809,-0.579 -3.504,-1.742c-0.7,-1.162 -1.055,-2.837 -1.059,-5.017m6.071,11.375c1.067,-0.291 2.075,-0.675 3.017,-1.154c0.946,-0.479 1.841,-1.033 2.7,-1.646c0.854,-0.608 1.741,-1.241 2.671,-1.9c0.179,0.575 0.395,1.15 0.641,1.721c0.25,0.575 0.575,1.104 0.971,1.575c0.396,0.475 0.888,0.859 1.496,1.146c0.608,0.283 1.337,0.425 2.2,0.421c1.492,-0.004 2.917,-0.313 4.275,-0.925c1.35,-0.613 2.596,-1.25 3.742,-1.904l-0.009,-2.467c-1.571,0.463 -2.833,0.696 -3.796,0.696c-2,0.004 -3.004,-2.229 -3.012,-6.708l-0.042,-18.767c-0.004,-1.983 -0.212,-3.658 -0.625,-5.017c-0.416,-1.362 -1.025,-2.446 -1.825,-3.266c-0.808,-0.821 -1.791,-1.4 -2.946,-1.746c-1.162,-0.338 -2.47,-0.509 -3.933,-0.504c-1.321,0.004 -2.658,0.133 -4.008,0.383c-1.359,0.25 -2.696,0.579 -4.013,0.987c-1.312,0.405 -2.608,0.863 -3.875,1.388c-1.262,0.517 -2.462,1.033 -3.604,1.529l1.288,3.667c1.925,-0.888 3.887,-1.604 5.883,-2.163c1.992,-0.562 3.683,-0.846 5.075,-0.85c1.929,-0.004 3.3,0.5 4.121,1.513c0.825,1.012 1.241,2.604 1.246,4.787l0.016,6.946l-6.579,0.246c-2.642,0.092 -4.871,0.375 -6.687,0.875c-1.817,0.5 -3.292,1.242 -4.43,2.221c-1.141,0.979 -1.966,2.192 -2.483,3.629c-0.512,1.433 -0.767,3.104 -0.762,5.021c0.008,3.596 0.879,6.283 2.608,8.054c1.737,1.775 4.104,2.658 7.096,2.65c1.316,-0.004 2.512,-0.146 3.583,-0.437" style="fill:#fff;fill-rule:nonzero;"/><path d="M332.858,392.861l-0.063,-27.204l-7.212,1.97l0.142,64.392l7.22,-0.021l-0.07,-31.104c0.783,-0.462 1.666,-0.921 2.641,-1.383c0.988,-0.459 1.988,-0.867 3.021,-1.213c1.038,-0.346 2.058,-0.637 3.079,-0.871c1.013,-0.229 1.95,-0.345 2.804,-0.345c1.388,-0.005 2.496,0.22 3.317,0.675c0.825,0.458 1.454,1.054 1.904,1.779c0.446,0.721 0.746,1.529 0.888,2.433c0.146,0.9 0.221,1.804 0.221,2.725l0.062,27.258l7.217,-0.016l-0.063,-28.467c-0.004,-1.95 -0.279,-3.65 -0.812,-5.104c-0.538,-1.458 -1.284,-2.667 -2.229,-3.638c-0.946,-0.975 -2.071,-1.7 -3.375,-2.175c-1.305,-0.47 -2.734,-0.708 -4.305,-0.704c-1.395,0.004 -2.775,0.2 -4.145,0.588c-1.371,0.379 -2.696,0.854 -3.959,1.412c-1.258,0.563 -2.433,1.154 -3.521,1.792c-1.087,0.633 -2.041,1.204 -2.862,1.7c-0,-0.542 0.021,-1.288 0.05,-2.242c0.037,-0.95 0.05,-1.696 0.05,-2.237" style="fill:#fff;fill-rule:nonzero;"/><path d="M381.541,399.366c0.442,-0.329 0.908,-0.571 1.387,-0.721c0.484,-0.154 1.063,-0.233 1.738,-0.233c0.929,-0.005 1.904,0.037 2.942,0.133c1.033,0.096 1.962,0.171 2.783,0.25l1.05,-7.058c-1.463,0.004 -2.796,0.079 -4.009,0.208c-1.208,0.133 -2.3,0.437 -3.262,0.896c-0.567,0.266 -1.1,0.637 -1.6,1.096c-0.5,0.462 -0.967,0.958 -1.417,1.5c-0.441,0.541 -0.879,1.1 -1.304,1.695c-0.429,0.588 -0.837,1.142 -1.225,1.638l-0.054,-0l-1.033,-6.142l-6.038,0.017l0.088,39.258l7.216,-0.021l-0.066,-29.841c0.566,-0.579 1.066,-1.084 1.495,-1.525c0.43,-0.442 0.859,-0.825 1.309,-1.15" style="fill:#fff;fill-rule:nonzero;"/><path d="M424.298,424.765c-0.655,0.608 -1.517,1.175 -2.588,1.67c-1.067,0.496 -2.396,0.9 -3.983,1.217c-1.588,0.313 -3.538,0.467 -5.854,0.471l-1.817,0.004c-0.717,0.004 -1.442,-0.008 -2.171,-0.025c-0.729,-0.012 -1.425,-0.029 -2.087,-0.046c-0.655,-0.016 -1.167,-0.05 -1.521,-0.083l18.646,-33.392l-0.005,-2.062c-1.925,0.004 -4.087,0.025 -6.475,0.071c-2.387,0.037 -4.75,0.095 -7.087,0.162c-2.333,0.063 -4.492,0.129 -6.467,0.217c-1.983,0.087 -3.521,0.154 -4.629,0.241l-0.629,4.071c0.75,-0.029 1.862,-0.083 3.337,-0.146c1.48,-0.062 3.05,-0.108 4.713,-0.129c1.654,-0.025 3.267,-0.046 4.833,-0.066c1.575,-0.025 2.842,-0.038 3.804,-0.042l-18.333,32.529l0.008,2.413c0.571,-0.005 1.571,0.02 2.996,0.079c1.425,0.054 3.042,0.108 4.842,0.187c1.8,0.075 3.671,0.138 5.612,0.184c1.946,0.054 3.705,0.079 5.271,0.075c1.929,-0.005 3.592,-0.267 5,-0.788c1.409,-0.521 2.613,-1.183 3.629,-1.992c1.013,-0.808 1.867,-1.679 2.542,-2.612c0.671,-0.938 1.242,-1.838 1.704,-2.675l-1.5,-1.429c-0.533,0.654 -1.129,1.283 -1.791,1.896" style="fill:#fff;fill-rule:nonzero;"/><path d="M441.171,404.235c0.162,-1.117 0.362,-2.142 0.612,-3.075c0.25,-0.938 0.538,-1.742 0.875,-2.413c0.334,-0.67 0.704,-1.154 1.092,-1.466c0.679,-0.496 1.433,-0.842 2.271,-1.042c0.837,-0.192 1.687,-0.292 2.541,-0.292c1.284,-0.004 2.371,0.317 3.267,0.967c0.896,0.654 1.629,1.488 2.225,2.521c0.588,1.033 1.054,2.208 1.4,3.529c0.338,1.313 0.6,2.633 0.779,3.929l-15.296,0.725c-0.004,-1.146 0.08,-2.271 0.234,-3.383m16.221,5.667c1.3,-0.217 2.396,-0.463 3.287,-0.73c0.892,-0.266 1.617,-0.575 2.163,-0.92c0.55,-0.35 0.987,-0.725 1.312,-1.15l-0.004,-0.459c-0.471,-2.871 -1.175,-5.266 -2.129,-7.2c-0.95,-1.929 -2.054,-3.479 -3.329,-4.641c-1.267,-1.159 -2.667,-1.996 -4.2,-2.484c-1.534,-0.491 -3.109,-0.737 -4.709,-0.733c-2.354,0.004 -4.55,0.392 -6.579,1.167c-2.029,0.77 -3.791,1.991 -5.283,3.687c-1.496,1.692 -2.667,3.908 -3.517,6.663c-0.846,2.758 -1.266,6.108 -1.258,10.045c0.008,3.525 0.375,6.517 1.112,8.984c0.742,2.466 1.75,4.462 3.038,5.983c1.287,1.525 2.796,2.633 4.529,3.321c1.725,0.683 3.608,1.021 5.642,1.017c1.712,-0.009 3.379,-0.23 5,-0.671c1.621,-0.446 3.166,-1.004 4.65,-1.675c1.479,-0.675 2.858,-1.413 4.141,-2.221c1.28,-0.813 2.438,-1.583 3.467,-2.308l-0.912,-2.238c-0.571,0.313 -1.363,0.671 -2.375,1.071c-1.017,0.404 -2.15,0.804 -3.392,1.183c-1.25,0.388 -2.558,0.717 -3.933,0.988c-1.375,0.266 -2.7,0.412 -3.988,0.412c-3.096,0.009 -5.417,-1.041 -6.954,-3.141c-1.538,-2.092 -2.313,-5.467 -2.325,-10.088l-0.004,-2.471l11.871,-0.896c1.816,-0.116 3.379,-0.283 4.679,-0.495" style="fill:#fff;fill-rule:nonzero;"/><path d="M507.284,431.554l-0.088,-39.258l-7.221,0.021l0.071,31.104c-0.787,0.462 -1.658,0.921 -2.621,1.383c-0.962,0.463 -1.958,0.867 -2.995,1.213c-1.025,0.35 -2.055,0.641 -3.067,0.87c-1.021,0.234 -1.971,0.35 -2.867,0.355c-1.387,0.004 -2.496,-0.23 -3.312,-0.684c-0.825,-0.458 -1.459,-1.037 -1.904,-1.746c-0.446,-0.708 -0.742,-1.504 -0.888,-2.408c-0.146,-0.9 -0.217,-1.804 -0.221,-2.729l-0.062,-27.313l-7.217,0.017l0.063,28.529c0.004,1.95 0.27,3.642 0.812,5.075c0.538,1.429 1.283,2.634 2.225,3.609c0.95,0.97 2.083,1.695 3.408,2.17c1.321,0.471 2.759,0.709 4.334,0.705c1.383,-0.005 2.758,-0.2 4.112,-0.58c1.354,-0.387 2.663,-0.862 3.929,-1.42c1.267,-0.555 2.446,-1.155 3.525,-1.784c1.088,-0.637 2.042,-1.208 2.859,-1.708l1.083,4.596l6.042,-0.017Z" style="fill:#fff;fill-rule:nonzero;"/><path d="M540.453,413.501c-0.408,1.579 -0.971,2.621 -1.679,3.166c-1.496,1.067 -3.459,1.613 -5.879,1.621c-1.067,0 -2.042,-0.312 -2.917,-0.941c-0.871,-0.634 -1.638,-1.459 -2.275,-2.492c-0.646,-1.033 -1.146,-2.225 -1.513,-3.579c-0.358,-1.363 -0.537,-2.763 -0.537,-4.217c-0.013,-5.592 0.704,-8.958 2.167,-10.108c1.245,-0.959 3.008,-1.442 5.291,-1.45c1.217,-0 2.313,0.283 3.288,0.858c0.983,0.567 1.821,1.358 2.521,2.371c0.695,1.017 1.225,2.208 1.583,3.579c0.367,1.383 0.546,2.871 0.55,4.479c0.004,2.904 -0.192,5.142 -0.6,6.713m11.537,-18.217l0.796,-3.962c-1.462,0.35 -3.171,0.633 -5.108,0.87c-1.946,0.234 -3.771,0.388 -5.479,0.48c-1.284,-0.43 -2.613,-0.742 -3.963,-0.967c-1.354,-0.233 -2.904,-0.342 -4.65,-0.338c-2.104,0.009 -4.054,0.384 -5.833,1.134c-1.779,0.75 -3.325,1.829 -4.642,3.225c-1.321,1.404 -2.337,3.112 -3.066,5.116c-0.73,2.013 -1.084,4.259 -1.08,6.75c0.009,3.409 0.638,6.217 1.892,8.43c1.246,2.212 2.842,3.929 4.771,5.15c-0.575,0.579 -1.146,1.22 -1.738,1.929c-0.583,0.712 -1.12,1.441 -1.595,2.187c-0.48,0.742 -0.871,1.521 -1.171,2.325c-0.304,0.804 -0.45,1.588 -0.45,2.35c0.004,2.646 0.958,4.55 2.871,5.709c1.916,1.158 4.966,1.762 9.179,1.787l5.829,0.033c2.817,-0.004 4.812,0.467 5.992,1.396c1.179,0.934 1.77,2.379 1.775,4.329c0.004,1.638 -0.225,3.142 -0.684,4.509c-0.466,1.358 -1.154,2.416 -2.079,3.191c-1.458,1.113 -3.192,1.921 -5.212,2.421c-2.013,0.5 -4.246,0.759 -6.705,0.763c-2.5,0.008 -4.495,-0.596 -6,-1.821c-1.495,-1.225 -2.25,-2.863 -2.254,-4.933c-0.004,-1.063 0.088,-2.063 0.263,-2.98c0.171,-0.925 0.458,-1.92 0.846,-2.987l-1.821,-0.683c-0.534,0.654 -1.046,1.333 -1.542,2.037c-0.5,0.709 -0.946,1.467 -1.333,2.271c-0.392,0.808 -0.709,1.642 -0.959,2.533c-0.25,0.88 -0.366,1.809 -0.366,2.809c0.004,1.15 0.221,2.237 0.65,3.27c0.429,1.034 1.116,1.938 2.062,2.721c0.95,0.788 2.184,1.4 3.721,1.854c1.538,0.455 3.404,0.68 5.621,0.675c3.208,-0.008 6.162,-0.558 8.871,-1.658c2.708,-1.1 5.05,-2.512 7.025,-4.237c1.971,-1.725 3.512,-3.684 4.612,-5.867c1.104,-2.183 1.65,-4.362 1.646,-6.546c-0.004,-1.8 -0.225,-3.346 -0.658,-4.646c-0.429,-1.295 -1.142,-2.375 -2.142,-3.237c-1.004,-0.854 -2.312,-1.488 -3.933,-1.883c-1.625,-0.4 -3.629,-0.596 -6.021,-0.588l-7.863,0.021c-1.5,0.004 -2.77,-0.2 -3.825,-0.621c-1.054,-0.421 -1.583,-1.225 -1.587,-2.404c-0,-1 0.146,-1.988 0.429,-2.988c0.275,-1 0.542,-1.758 0.792,-2.3c0.537,0.192 1.296,0.313 2.275,0.371c0.979,0.05 1.829,0.079 2.541,0.075c2.067,-0.004 4.025,-0.337 5.88,-1.021c1.854,-0.675 3.458,-1.666 4.808,-2.962c1.35,-1.3 2.425,-2.938 3.225,-4.892c0.796,-1.95 1.196,-4.208 1.192,-6.771c-0.009,-2.558 -0.225,-4.65 -0.663,-6.25c-0.429,-1.612 -0.946,-2.987 -1.558,-4.129c1.033,-0.004 2.158,-0.1 3.366,-0.296c1.217,-0.204 2.234,-0.45 3.05,-0.754" style="fill:#fff;fill-rule:nonzero;"/><path d="M575.146,395.94c1.084,-0.104 2.075,-0.204 2.967,-0.325l0.475,-3.504l-10,0.025l-0.179,-6.887l-1.442,0.004l-9.662,8.525l0.004,2.237l4.116,0.392l0.063,27.717c0.004,1.687 0.221,3.05 0.65,4.1c0.429,1.054 0.983,1.862 1.637,2.437c0.663,0.571 1.405,0.959 2.225,1.167c0.821,0.212 1.621,0.317 2.409,0.312c0.854,0 1.779,-0.1 2.783,-0.295c0.996,-0.196 1.992,-0.434 2.988,-0.725c1,-0.292 1.916,-0.584 2.754,-0.892c0.841,-0.313 1.525,-0.604 2.054,-0.871l-0.004,-2.696c-0.996,0.084 -2.1,0.146 -3.313,0.184c-1.216,0.033 -2.246,0.058 -3.104,0.062c-1.6,0 -2.65,-0.467 -3.133,-1.4c-0.484,-0.933 -0.725,-2.112 -0.729,-3.529l-0.059,-25.533c1.142,-0.038 2.284,-0.125 3.425,-0.238c0.963,-0.083 1.992,-0.171 3.075,-0.267" style="fill:#fff;fill-rule:nonzero;"/><path d="M592.887,403.844c0.159,-1.117 0.363,-2.142 0.613,-3.075c0.246,-0.937 0.537,-1.742 0.875,-2.412c0.333,-0.671 0.704,-1.155 1.092,-1.467c0.679,-0.496 1.433,-0.842 2.27,-1.042c0.838,-0.191 1.688,-0.291 2.542,-0.291c1.279,-0.005 2.371,0.316 3.267,0.966c0.891,0.654 1.629,1.488 2.221,2.521c0.587,1.033 1.058,2.208 1.4,3.529c0.337,1.313 0.604,2.634 0.783,3.929l-15.296,0.73c-0.004,-1.15 0.075,-2.275 0.233,-3.388m22.638,19.104c-0.567,0.313 -1.358,0.671 -2.371,1.071c-1.021,0.404 -2.15,0.804 -3.396,1.183c-1.246,0.388 -2.554,0.717 -3.929,0.988c-1.375,0.267 -2.7,0.412 -3.987,0.412c-3.1,0.009 -5.417,-1.041 -6.955,-3.141c-1.541,-2.092 -2.316,-5.467 -2.325,-10.088l-0.004,-2.471l11.871,-0.895c1.821,-0.117 3.379,-0.284 4.675,-0.496c1.304,-0.217 2.4,-0.463 3.292,-0.729c0.891,-0.267 1.612,-0.571 2.162,-0.921c0.55,-0.346 0.988,-0.725 1.313,-1.15l-0.004,-0.459c-0.471,-2.87 -1.18,-5.266 -2.13,-7.2c-0.95,-1.929 -2.058,-3.479 -3.329,-4.641c-1.266,-1.159 -2.666,-1.996 -4.2,-2.484c-1.537,-0.487 -3.108,-0.737 -4.708,-0.733c-2.354,0.004 -4.55,0.392 -6.579,1.167c-2.034,0.771 -3.792,1.991 -5.284,3.687c-1.495,1.692 -2.67,3.909 -3.516,6.663c-0.85,2.758 -1.271,6.108 -1.263,10.046c0.009,3.525 0.379,6.516 1.117,8.983c0.742,2.467 1.746,4.462 3.037,5.983c1.288,1.525 2.796,2.634 4.53,3.321c1.725,0.683 3.608,1.021 5.641,1.017c1.713,-0.004 3.379,-0.229 5,-0.671c1.617,-0.446 3.167,-1.004 4.65,-1.675c1.475,-0.675 2.854,-1.413 4.142,-2.221c1.279,-0.808 2.437,-1.583 3.467,-2.308l-0.917,-2.238Z" style="fill:#fff;fill-rule:nonzero;"/><path d="M652.777,423.948c-1.571,0.774 -3.317,1.383 -5.238,1.849c-1.925,0.463 -3.787,0.696 -5.562,0.7c-1.571,0.005 -2.954,-0.22 -4.154,-0.674c-1.188,-0.459 -2.192,-1.23 -3,-2.317c-0.805,-1.092 -1.4,-2.55 -1.796,-4.384c-0.396,-1.841 -0.592,-4.137 -0.6,-6.887c-0.004,-2.408 0.062,-4.454 0.221,-6.142c0.154,-1.687 0.375,-3.091 0.662,-4.221c0.279,-1.129 0.604,-2.016 0.975,-2.67c0.379,-0.654 0.763,-1.171 1.154,-1.554c0.813,-0.771 1.646,-1.296 2.484,-1.613c0.841,-0.313 1.683,-0.462 2.537,-0.462c0.675,-0.005 1.492,0.083 2.433,0.274c0.955,0.196 1.913,0.43 2.888,0.717c0.987,0.279 1.942,0.617 2.875,0.992c0.921,0.379 1.721,0.741 2.404,1.083l1.858,-6.492c-1.5,-0.3 -3.145,-0.55 -4.925,-0.758c-1.787,-0.204 -3.55,-0.304 -5.291,-0.3c-2.934,0.008 -5.509,0.5 -7.75,1.483c-2.25,0.98 -4.125,2.4 -5.642,4.263c-1.504,1.854 -2.654,4.121 -3.433,6.779c-0.779,2.659 -1.163,5.679 -1.154,9.042c0.004,3.525 0.387,6.508 1.141,8.975c0.754,2.466 1.792,4.466 3.121,5.991c1.317,1.526 2.867,2.634 4.663,3.317c1.775,0.679 3.687,1.025 5.725,1.021c1.416,-0.004 2.787,-0.158 4.116,-0.471c1.313,-0.317 2.571,-0.725 3.792,-1.242c1.208,-0.524 2.362,-1.125 3.442,-1.82c1.087,-0.692 2.095,-1.404 3.025,-2.13l-0.971,-2.349Z" style="fill:#fff;fill-rule:nonzero;"/><path d="M684.883,396.89c0.812,0.458 1.454,1.054 1.896,1.775c0.454,0.725 0.741,1.533 0.896,2.437c0.137,0.9 0.216,1.804 0.22,2.721l0.063,27.262l7.217,-0.02l-0.067,-28.463c-0.004,-1.954 -0.275,-3.65 -0.808,-5.108c-0.542,-1.454 -1.284,-2.663 -2.238,-3.638c-0.946,-0.971 -2.071,-1.696 -3.375,-2.171c-1.292,-0.47 -2.737,-0.708 -4.3,-0.704c-1.392,0.004 -2.771,0.2 -4.15,0.584c-1.371,0.379 -2.683,0.854 -3.958,1.416c-1.259,0.563 -2.434,1.15 -3.521,1.788c-1.079,0.633 -2.042,1.208 -2.858,1.7c-0,-0.538 0.008,-1.284 0.054,-2.238c0.029,-0.95 0.05,-1.696 0.05,-2.237l-0.063,-27.204l-7.216,1.966l0.145,64.392l7.221,-0.017l-0.071,-31.104c0.78,-0.462 1.667,-0.925 2.638,-1.383c0.983,-0.463 1.987,-0.867 3.025,-1.213c1.029,-0.35 2.054,-0.641 3.071,-0.871c1.012,-0.233 1.954,-0.345 2.808,-0.35c1.392,0 2.492,0.221 3.321,0.68" style="fill:#fff;fill-rule:nonzero;"/><path d="M718.497,398.527c0.963,-0.462 1.954,-0.87 2.992,-1.212c1.025,-0.35 2.054,-0.642 3.066,-0.871c1.017,-0.233 1.971,-0.354 2.871,-0.354c1.388,-0.004 2.492,0.229 3.313,0.683c0.816,0.454 1.458,1.038 1.9,1.746c0.45,0.704 0.741,1.504 0.891,2.408c0.138,0.9 0.217,1.805 0.221,2.725l0.063,27.317l7.216,-0.021l-0.066,-28.525c-0.004,-1.95 -0.267,-3.641 -0.809,-5.075c-0.541,-1.433 -1.283,-2.633 -2.233,-3.608c-0.942,-0.971 -2.079,-1.7 -3.4,-2.171c-1.325,-0.471 -2.767,-0.712 -4.333,-0.708c-1.384,0.004 -2.767,0.204 -4.113,0.583c-1.362,0.383 -2.662,0.858 -3.9,1.421c-1.254,0.554 -2.421,1.15 -3.508,1.783c-1.079,0.638 -2.042,1.209 -2.85,1.704l-0.108,0l-1.03,-4.591l-6.041,0.016l0.087,39.255l7.221,-0.017l-0.071,-31.108c0.784,-0.459 1.659,-0.921 2.621,-1.38" style="fill:#fff;fill-rule:nonzero;"/><path d="M757.981,371.504l-4.858,5.238l4.883,5.212l4.904,-5.237l-4.929,-5.213Z" style="fill:#fff;fill-rule:nonzero;"/><path d="M761.834,430.894l-7.247,0.021l-0.113,-39.254l7.246,-0.021l0.114,39.254Z" style="fill:#fff;"/><path d="M808.781,427.791l-0.537,-0c-1.246,0.004 -2.45,-0.404 -3.617,-1.225c-1.158,-0.813 -2.283,-1.892 -3.375,-3.234c-1.087,-1.337 -2.125,-2.829 -3.117,-4.466c-0.97,-1.642 -1.908,-3.3 -2.787,-4.988c-0.875,-1.683 -1.688,-3.275 -2.442,-4.783c-0.754,-1.508 -1.441,-2.779 -2.041,-3.813c0.962,-1.033 1.87,-2.033 2.72,-2.991c0.705,-0.804 1.421,-1.588 2.138,-2.359c0.704,-0.77 1.233,-1.325 1.6,-1.666c0.742,-0.725 1.437,-1.363 2.083,-1.896c0.638,-0.546 1.267,-0.979 1.888,-1.329c0.633,-0.346 1.275,-0.609 1.925,-0.784c0.662,-0.17 1.379,-0.258 2.166,-0.262l0.217,-0l-0.008,-2.408c-0.317,-0.196 -0.834,-0.321 -1.529,-0.396c-0.696,-0.084 -1.3,-0.117 -1.838,-0.113c-1.65,0.004 -2.987,0.329 -4.042,0.988c-1.05,0.658 -2.158,1.579 -3.329,2.762c-0.716,0.725 -1.562,1.638 -2.541,2.734c-0.971,1.091 -2.009,2.275 -3.096,3.533c-1.075,1.267 -2.188,2.562 -3.304,3.887c-1.121,1.317 -2.159,2.58 -3.121,3.763c-0,-0.229 0.012,-0.571 0.021,-1.033c0.02,-0.459 0.041,-0.946 0.05,-1.463c0.02,-0.512 0.033,-1.012 0.029,-1.487l-0,-1.121l-0.088,-39.142l-7.216,1.971l0.145,64.392l7.217,-0.021l-0.037,-17.042l3.045,-3.279c1.421,2.488 2.746,4.975 3.971,7.475c1.213,2.508 2.475,4.754 3.759,6.738c1.287,1.983 2.662,3.595 4.129,4.837c1.454,1.242 3.158,1.854 5.087,1.85c0.992,-0.004 2.034,-0.096 3.1,-0.292c1.067,-0.2 1.988,-0.445 2.779,-0.754l-0.004,-2.583Z" style="fill:#fff;fill-rule:nonzero;"/><path d="M871.819,428.201c1.683,-0.575 3.087,-1.154 4.221,-1.734l-0.055,-23.987l-18.825,0.05l-0.583,3.042l12.2,0.658l0.042,18.992c-0.813,0.204 -1.809,0.387 -2.963,0.587c-1.166,0.196 -2.4,0.375 -3.691,0.525c-1.305,0.15 -2.63,0.283 -3.988,0.379c-1.346,0.104 -2.633,0.154 -3.85,0.159c-2.567,0.008 -4.733,-0.621 -6.5,-1.875c-1.767,-1.263 -3.204,-3.038 -4.321,-5.334c-1.104,-2.287 -1.916,-5.029 -2.429,-8.225c-0.492,-3.195 -0.758,-6.721 -0.767,-10.591c-0.004,-2.096 0.042,-4.242 0.146,-6.421c0.104,-2.188 0.3,-4.225 0.571,-6.142c0.288,-1.925 0.675,-3.621 1.167,-5.117c0.5,-1.487 1.162,-2.583 1.975,-3.274c1.491,-1.3 3.129,-2.134 4.891,-2.48c1.763,-0.35 3.646,-0.525 5.634,-0.533c1.221,0 2.6,0.083 4.15,0.25c1.554,0.167 3.108,0.375 4.658,0.617c1.55,0.241 3.029,0.529 4.438,0.854c1.404,0.325 2.583,0.629 3.504,0.937l1.912,-6.837c-0.783,-0.15 -1.783,-0.317 -2.966,-0.508c-1.2,-0.192 -2.467,-0.363 -3.8,-0.509c-1.338,-0.142 -2.696,-0.267 -4.067,-0.358c-1.379,-0.096 -2.613,-0.138 -3.725,-0.138c-4.446,0.013 -8.338,0.7 -11.654,2.071c-3.313,1.367 -6.054,3.333 -8.242,5.904c-2.192,2.563 -3.829,5.679 -4.9,9.338c-1.083,3.658 -1.621,7.779 -1.612,12.366c0.012,4.6 0.42,8.763 1.204,12.513c0.804,3.75 2.062,6.971 3.804,9.662c1.725,2.692 3.975,4.767 6.717,6.234c2.75,1.471 6.104,2.196 10.058,2.187c1.975,-0.008 4.004,-0.158 6.096,-0.475c2.108,-0.316 4.141,-0.712 6.1,-1.191c1.962,-0.484 3.783,-1.017 5.45,-1.596" style="fill:#fff;fill-rule:nonzero;"/><path d="M914.492,415.78c-0.209,1.667 -0.479,3.117 -0.846,4.363c-0.346,1.25 -0.733,2.271 -1.138,3.079c-0.412,0.804 -0.808,1.4 -1.204,1.783c-0.779,0.688 -1.887,1.184 -3.333,1.496c-1.446,0.313 -3.029,0.471 -4.738,0.475c-1.208,0.004 -2.345,-0.041 -3.391,-0.137c-1.059,-0.092 -2.15,-0.229 -3.296,-0.421l-0.067,-28.983c1.288,-0.546 2.6,-0.971 3.938,-1.296c1.337,-0.338 2.746,-0.496 4.241,-0.5c1.505,-0.004 2.884,0.25 4.121,0.787c1.259,0.538 2.325,1.4 3.217,2.575c0.9,1.179 1.587,2.696 2.075,4.529c0.487,1.838 0.725,4.05 0.729,6.655c0.008,2.07 -0.096,3.933 -0.308,5.595m3.216,-21.037c-1.429,-1.529 -3.062,-2.633 -4.925,-3.317c-1.854,-0.687 -3.779,-1.025 -5.779,-1.021c-1.133,0.005 -2.192,0.121 -3.154,0.35c-0.967,0.238 -1.875,0.546 -2.725,0.93c-0.854,0.379 -1.671,0.829 -2.458,1.325c-0.779,0.495 -1.555,1.037 -2.296,1.616c-0.004,-0.725 0.021,-1.437 0.046,-2.129c-0.005,-0.604 0.004,-1.279 0.025,-2.004c0.012,-0.725 0.02,-1.438 0.016,-2.129l-0.054,-24.159l-7.212,1.971l0.141,62.959c2.609,0.795 5.167,1.35 7.684,1.67c2.512,0.321 4.891,0.475 7.137,0.471c2.85,-0.008 5.409,-0.5 7.675,-1.483c2.254,-0.979 4.179,-2.392 5.767,-4.233c1.579,-1.838 2.783,-4.096 3.625,-6.75c0.825,-2.663 1.233,-5.692 1.225,-9.1c-0.008,-3.53 -0.442,-6.517 -1.3,-8.98c-0.863,-2.462 -2,-4.466 -3.438,-5.987" style="fill:#fff;fill-rule:nonzero;"/><path d="M952.274,400.91c-2.087,0.429 -4.8,0.642 -8.158,0.65l-2.3,0.004l-0.058,-26.054c1.112,-0.117 2.029,-0.208 2.779,-0.267c0.75,-0.054 1.65,-0.087 2.675,-0.091c2.075,-0.004 3.916,0.221 5.541,0.675c1.617,0.454 3.009,1.175 4.146,2.171c1.15,0.995 2.025,2.279 2.629,3.866c0.617,1.592 0.913,3.504 0.921,5.767c0.004,1.796 -0.067,3.337 -0.225,4.621c-0.158,1.279 -0.387,2.366 -0.687,3.266c-0.304,0.905 -0.671,1.642 -1.1,2.213c-0.425,0.579 -0.884,1.037 -1.388,1.387c-1.096,0.771 -2.687,1.359 -4.775,1.792m23.725,26.45c-1.779,0.004 -3.458,-0.6 -5.033,-1.821c-1.567,-1.225 -3.121,-2.871 -4.667,-4.954c-1.529,-2.075 -3.071,-4.487 -4.583,-7.217c-1.521,-2.733 -3.1,-5.612 -4.759,-8.625c1.542,-0.658 3.005,-1.479 4.413,-2.483c1.4,-1.004 2.629,-2.208 3.65,-3.621c1.038,-1.421 1.854,-3.079 2.479,-4.971c0.621,-1.895 0.921,-4.07 0.917,-6.516c-0.004,-2.525 -0.384,-4.788 -1.138,-6.775c-0.75,-1.984 -1.887,-3.667 -3.433,-5.038c-1.533,-1.375 -3.479,-2.425 -5.833,-3.141c-2.359,-0.717 -5.121,-1.08 -8.296,-1.071c-2.596,0.008 -5.254,0.075 -7.971,0.196c-2.704,0.12 -5.183,0.27 -7.429,0.479l0.129,58.65l7.433,-0.021l-0.054,-24.792l7.7,-0.021l3.063,5.963c2.041,4.017 3.762,7.275 5.154,9.8c1.396,2.525 2.7,4.5 3.896,5.933c1.191,1.429 2.429,2.404 3.666,2.917c1.254,0.512 2.775,0.771 4.554,0.767c1.25,-0.005 2.48,-0.105 3.684,-0.3c1.221,-0.196 2.216,-0.446 2.996,-0.755l-0.009,-2.587l-0.529,0.004Z" style="fill:#fff;fill-rule:nonzero;"/><path d="M327.563,518.605c-1.851,0.004 -3.659,-0.671 -5.421,-2.046c-1.763,-1.367 -3.513,-3.288 -5.267,-5.771c-1.746,-2.475 -3.533,-5.433 -5.358,-8.871c-1.834,-3.442 -3.738,-7.204 -5.717,-11.3c1.475,-1.796 2.875,-3.462 4.196,-5.029c1.329,-1.554 2.583,-2.979 3.783,-4.283c1.113,-1.192 2.117,-2.196 3.025,-3.005c0.908,-0.812 1.771,-1.483 2.592,-2.016c0.812,-0.538 1.621,-0.917 2.425,-1.146c0.796,-0.233 1.629,-0.35 2.496,-0.354l0.645,-0l-0.008,-3.179c-0.246,-0.105 -0.687,-0.184 -1.337,-0.25c-0.65,-0.063 -1.238,-0.096 -1.763,-0.096c-1.2,0.004 -2.279,0.066 -3.237,0.191c-0.95,0.113 -1.871,0.371 -2.755,0.775c-0.87,0.392 -1.762,0.971 -2.67,1.717c-0.913,0.75 -1.921,1.746 -3.029,3.008c-0.83,0.959 -1.888,2.23 -3.163,3.809c-1.271,1.571 -2.604,3.241 -3.988,4.996c-1.383,1.758 -2.741,3.491 -4.058,5.2c-1.321,1.704 -2.446,3.137 -3.367,4.304l-0.054,-23.834l-9.675,0.025l0.117,50.834l9.671,-0.025l-0.042,-19.659c0.183,-0.225 0.433,-0.537 0.758,-0.941c0.321,-0.4 0.671,-0.829 1.038,-1.288c0.371,-0.471 0.725,-0.912 1.062,-1.35c0.342,-0.429 0.63,-0.783 0.875,-1.041c1.459,3.137 2.796,5.933 4.025,8.375c1.221,2.45 2.38,4.591 3.48,6.42c1.1,1.838 2.175,3.392 3.225,4.663c1.054,1.275 2.141,2.308 3.27,3.087c1.13,0.796 2.33,1.367 3.613,1.705c1.283,0.35 2.692,0.516 4.237,0.512c1.417,-0.004 2.667,-0.083 3.746,-0.233c1.075,-0.15 2.138,-0.371 3.192,-0.675l-0.008,-3.229l-0.555,-0Z" style="fill:#fff;fill-rule:nonzero;"/><path d="M332.748,522.166l9.671,-0.025l-0.05,-22.091l16.841,-0.434l0.45,-4.721l-17.3,-0.158l-0.041,-18.071l17.904,-0.283l0.404,-5.121l-27.992,0.071l0.113,50.833Z" style="fill:#fff;fill-rule:nonzero;"/><path d="M402.268,513.275c-0.525,0.584 -1.225,1.125 -2.1,1.646c-0.879,0.513 -1.996,0.938 -3.354,1.271c-1.359,0.338 -3.084,0.525 -5.179,0.563l-15.084,0.037l23.821,-42.458l-0.008,-3.179l-33.029,0.087l-0.73,5.167c0.834,0.033 2.084,0.066 3.746,0.096c1.667,0.02 3.488,0.05 5.463,0.075c1.971,0.029 3.962,0.05 5.971,0.066c2,0.004 3.762,0.013 5.275,0.009l1.662,-0.005l-23.733,41.959l0.004,3.479c0.342,-0 1.167,0.004 2.479,0.012c1.313,0.013 2.9,0.042 4.763,0.092c1.87,0.042 3.887,0.083 6.062,0.108c2.175,0.025 4.292,0.059 6.338,0.105c2.058,0.05 3.929,0.075 5.62,0.087c1.7,0.013 3.009,0.008 3.934,0.008c1.85,-0.004 3.45,-0.316 4.787,-0.954c1.342,-0.629 2.475,-1.391 3.4,-2.287c0.921,-0.904 1.679,-1.859 2.279,-2.892c0.6,-1.021 1.084,-1.937 1.455,-2.725l-2.417,-2.033c-0.425,0.529 -0.908,1.083 -1.425,1.666" style="fill:#fff;fill-rule:nonzero;"/><path d="M408.869,507.428l17.488,-0.046l0.445,-6.754l-17.487,0.046l-0.446,6.754Z" style="fill:#fff;fill-rule:nonzero;"/><path d="M479.293,470.609l-15.791,36.083l-16.688,-36l-8.975,0.025l-4.746,51.192l5.604,-0.016l3.101,-38.78l17.995,38.725l2.959,-0.008l16.941,-38.817l3.971,38.767l9.759,-0.029l-5.388,-51.163l-8.742,0.021Z" style="fill:#fff;fill-rule:nonzero;"/><path d="M510.473,498.727c0.104,-0.93 0.242,-1.8 0.412,-2.613c0.163,-0.804 0.363,-1.517 0.588,-2.133c0.229,-0.613 0.487,-1.017 0.767,-1.217c0.458,-0.367 0.979,-0.621 1.55,-0.775c0.566,-0.15 1.141,-0.229 1.733,-0.229c0.862,-0 1.608,0.283 2.221,0.867c0.621,0.57 1.129,1.304 1.533,2.2c0.4,0.895 0.721,1.87 0.954,2.929c0.229,1.062 0.409,2.083 0.542,3.075l-10.454,0.529c-0,-0.829 0.046,-1.708 0.154,-2.633m17.983,15.166c-0.908,0.35 -1.916,0.696 -3.029,1.029c-1.112,0.338 -2.275,0.613 -3.492,0.846c-1.216,0.238 -2.383,0.359 -3.491,0.363c-1.354,0.004 -2.554,-0.229 -3.584,-0.692c-1.037,-0.454 -1.891,-1.092 -2.575,-1.904c-0.679,-0.808 -1.191,-1.775 -1.533,-2.896c-0.342,-1.121 -0.517,-2.346 -0.517,-3.671l-0.004,-1.441l10.5,-0.821c1.609,-0.138 2.975,-0.296 4.121,-0.479c1.138,-0.184 2.1,-0.405 2.883,-0.655c0.788,-0.25 1.43,-0.537 1.921,-0.875c0.496,-0.333 0.896,-0.704 1.204,-1.091l0,-0.446c-0.47,-2.713 -1.17,-4.983 -2.1,-6.808c-0.929,-1.805 -2.02,-3.259 -3.275,-4.35c-1.25,-1.088 -2.625,-1.863 -4.12,-2.321c-1.492,-0.463 -3.046,-0.688 -4.655,-0.684c-2.316,0.009 -4.466,0.342 -6.47,1c-2.005,0.675 -3.746,1.73 -5.217,3.192c-1.479,1.467 -2.638,3.388 -3.458,5.775c-0.834,2.379 -1.242,5.279 -1.234,8.688c0.004,3.045 0.379,5.629 1.109,7.766c0.725,2.134 1.72,3.859 2.97,5.179c1.255,1.321 2.734,2.275 4.45,2.863c1.713,0.592 3.567,0.887 5.575,0.879c1.692,-0.004 3.342,-0.212 4.946,-0.629c1.604,-0.421 3.121,-0.967 4.55,-1.65c1.442,-0.683 2.775,-1.429 4.021,-2.238c1.254,-0.82 2.379,-1.629 3.396,-2.425l-0.788,-2.429c-0.495,0.263 -1.195,0.579 -2.104,0.925" style="fill:#fff;fill-rule:nonzero;"/><path d="M537.782,474.775l5.933,6.341l5.958,-6.371l-5.983,-6.341l-5.908,6.371Z" style="fill:#fff;fill-rule:nonzero;"/><path d="M539.228,521.634l-0.075,-33.946l9.479,-0.021l0.075,33.946l-9.479,0.021Z" style="fill:#fff;"/><path d="M577.563,502.524c-1.221,-0.796 -2.538,-1.421 -3.959,-1.9c-1.425,-0.479 -2.742,-0.946 -3.962,-1.4c-1.217,-0.463 -2.238,-0.992 -3.055,-1.592c-0.825,-0.583 -1.229,-1.396 -1.233,-2.425c0,-0.496 0.054,-0.979 0.158,-1.462c0.109,-0.484 0.28,-0.805 0.534,-0.971c0.246,-0.163 0.596,-0.296 1.041,-0.379c0.446,-0.075 1.071,-0.125 1.871,-0.125c0.65,-0.005 1.371,0.062 2.175,0.191c0.8,0.134 1.642,0.3 2.525,0.517c0.879,0.217 1.754,0.454 2.638,0.717c0.875,0.262 1.687,0.525 2.433,0.787l1.046,-6.758c-1.546,-0.229 -3.171,-0.429 -4.888,-0.609c-1.708,-0.17 -3.337,-0.262 -4.875,-0.258c-1.85,0.004 -3.483,0.263 -4.883,0.783c-1.4,0.517 -2.687,1.305 -3.854,2.359c-0.467,0.446 -0.925,0.925 -1.388,1.475c-0.458,0.546 -0.87,1.141 -1.225,1.766c-0.35,0.63 -0.637,1.284 -0.85,1.959c-0.212,0.683 -0.316,1.358 -0.316,2.016c0.004,2.017 0.417,3.642 1.237,4.888c0.817,1.237 1.83,2.246 3.034,3.017c1.208,0.775 2.529,1.404 3.966,1.879c1.43,0.475 2.75,0.95 3.95,1.429c1.209,0.475 2.221,1.025 3.038,1.654c0.821,0.629 1.229,1.5 1.233,2.621c0.004,0.971 -0.071,1.783 -0.225,2.458c-0.154,0.684 -0.4,1.163 -0.741,1.425c-0.4,0.296 -0.88,0.509 -1.455,0.621c-0.57,0.125 -1.22,0.179 -1.966,0.183c-1.079,0 -2.121,-0.154 -3.117,-0.47c-1.008,-0.309 -1.967,-0.696 -2.879,-1.155c-0.908,-0.458 -1.779,-0.958 -2.608,-1.508c-0.842,-0.542 -1.596,-1.042 -2.271,-1.512l-2.355,6.37c1.701,1.084 3.521,1.871 5.467,2.359c1.942,0.496 4.088,0.737 6.438,0.729c1.291,-0 2.425,-0.108 3.396,-0.329c0.975,-0.221 1.833,-0.509 2.591,-0.871c0.75,-0.367 1.429,-0.779 2.029,-1.25c0.605,-0.463 1.175,-0.946 1.734,-1.438c1.016,-0.937 1.921,-2.012 2.7,-3.237c0.787,-1.229 1.17,-2.804 1.166,-4.721c-0.004,-1.983 -0.412,-3.587 -1.237,-4.817c-0.817,-1.212 -1.842,-2.22 -3.059,-3.016" style="fill:#fff;fill-rule:nonzero;"/><path d="M607.967,515.127c-0.65,0.092 -1.308,0.163 -1.971,0.23c-0.662,0.07 -1.291,0.129 -1.896,0.179c-0.604,0.05 -1.083,0.079 -1.454,0.083c-1.387,0 -2.291,-0.408 -2.712,-1.212c-0.417,-0.809 -0.625,-1.825 -0.629,-3.05l-0.042,-19.117c1.233,-0.067 2.454,-0.175 3.65,-0.3c1.021,-0.108 2.067,-0.213 3.15,-0.338c1.079,-0.116 2.004,-0.241 2.771,-0.379l0.412,-3.721l-10.037,0.025l-0.159,-5.958l-2.583,0.008l-10.258,7.371l0.004,2.088l3.562,1.179l0.055,23.338c-0,1.383 0.195,2.508 0.579,3.366c0.391,0.863 0.912,1.534 1.541,2.009c0.63,0.479 1.346,0.795 2.146,0.962c0.809,0.163 1.625,0.246 2.463,0.242c1.075,-0.005 2.216,-0.134 3.421,-0.4c1.2,-0.275 2.375,-0.613 3.529,-1.029c1.162,-0.421 2.262,-0.888 3.312,-1.4c1.046,-0.521 1.971,-1.038 2.767,-1.563l-0.004,-2.842c-0.434,0.071 -0.971,0.15 -1.617,0.229" style="fill:#fff;fill-rule:nonzero;"/><path d="M623.866,498.435c0.104,-0.929 0.242,-1.8 0.409,-2.613c0.162,-0.804 0.366,-1.516 0.595,-2.133c0.23,-0.612 0.484,-1.017 0.763,-1.217c0.458,-0.366 0.979,-0.62 1.55,-0.775c0.567,-0.15 1.142,-0.229 1.733,-0.229c0.859,-0.004 1.604,0.284 2.221,0.867c0.621,0.571 1.133,1.304 1.533,2.196c0.4,0.9 0.721,1.875 0.955,2.933c0.233,1.063 0.408,2.083 0.541,3.075l-10.454,0.529c0,-0.829 0.046,-1.712 0.154,-2.633m17.984,15.167c-0.909,0.35 -1.917,0.695 -3.03,1.025c-1.108,0.337 -2.275,0.616 -3.491,0.85c-1.217,0.237 -2.379,0.358 -3.492,0.362c-1.354,0.004 -2.554,-0.229 -3.583,-0.692c-1.038,-0.454 -1.892,-1.091 -2.575,-1.904c-0.679,-0.808 -1.192,-1.775 -1.529,-2.896c-0.346,-1.12 -0.521,-2.345 -0.521,-3.67l-0.004,-1.442l10.504,-0.821c1.6,-0.142 2.971,-0.296 4.116,-0.479c1.138,-0.188 2.1,-0.408 2.884,-0.654c0.787,-0.25 1.429,-0.542 1.921,-0.875c0.5,-0.334 0.895,-0.704 1.204,-1.092l-0.004,-0.446c-0.463,-2.716 -1.163,-4.983 -2.096,-6.808c-0.929,-1.804 -2.021,-3.258 -3.271,-4.35c-1.25,-1.087 -2.629,-1.863 -4.125,-2.325c-1.492,-0.458 -3.046,-0.683 -4.654,-0.679c-2.313,0.004 -4.467,0.341 -6.471,0.996c-2,0.675 -3.746,1.733 -5.217,3.195c-1.479,1.467 -2.637,3.384 -3.458,5.776c-0.833,2.379 -1.242,5.279 -1.238,8.687c0.009,3.046 0.38,5.629 1.117,7.767c0.721,2.133 1.717,3.858 2.967,5.179c1.254,1.321 2.733,2.275 4.45,2.862c1.716,0.592 3.566,0.884 5.575,0.88c1.691,-0.005 3.341,-0.213 4.946,-0.63c1.604,-0.421 3.116,-0.966 4.554,-1.65c1.437,-0.683 2.771,-1.429 4.021,-2.237c1.25,-0.821 2.375,-1.629 3.391,-2.425l-0.787,-2.434c-0.496,0.267 -1.196,0.584 -2.104,0.93" style="fill:#fff;fill-rule:nonzero;"/><path d="M666.701,487.353c-0.458,0.167 -0.921,0.475 -1.383,0.921c-0.458,0.454 -0.904,0.938 -1.317,1.467c-0.416,0.529 -0.796,1.066 -1.158,1.621c-0.35,0.545 -0.65,1.016 -0.892,1.412l-0.046,0l-0.85,-5.408l-8.508,0.025l0.079,33.954l9.479,-0.025l-0.054,-24.375c0.459,-0.538 0.884,-0.971 1.267,-1.317c0.392,-0.35 0.767,-0.646 1.133,-0.875c0.371,-0.229 0.771,-0.396 1.204,-0.496c0.425,-0.108 0.925,-0.15 1.48,-0.154c0.77,0 1.566,0.075 2.379,0.242c0.825,0.162 1.596,0.379 2.341,0.642l1.042,-8.396c-1.196,0.004 -2.329,0.046 -3.4,0.137c-1.062,0.079 -1.992,0.296 -2.796,0.625" style="fill:#fff;fill-rule:nonzero;"/><path d="M700.255,511.42c-0.517,1.967 -1.042,3.238 -1.563,3.8c-0.521,0.496 -1.283,0.867 -2.267,1.1c-0.983,0.229 -2.175,0.35 -3.558,0.354c-0.712,0.004 -1.462,-0.037 -2.246,-0.125c-0.791,-0.079 -1.508,-0.2 -2.154,-0.358l-0.05,-22.342c0.858,-0.4 1.813,-0.708 2.846,-0.95c1.029,-0.237 2.042,-0.354 3.029,-0.358c2.004,-0.004 3.629,0.908 4.863,2.741c1.237,1.834 1.862,4.675 1.87,8.513c0.009,3.108 -0.25,5.646 -0.77,7.625m6.612,-21.146c-1.204,-1.321 -2.592,-2.279 -4.162,-2.862c-1.58,-0.596 -3.213,-0.884 -4.913,-0.88c-1.917,0.005 -3.646,0.367 -5.2,1.1c-1.554,0.734 -2.979,1.584 -4.271,2.542c0,-0.625 0.009,-1.237 0.034,-1.837c-0,-0.53 0.008,-1.105 0.025,-1.738c0.012,-0.625 0.016,-1.242 0.016,-1.837l-0.046,-21.2l-9.479,2.008l0.125,54.467c2.467,0.687 4.975,1.17 7.517,1.445c2.546,0.275 4.883,0.4 7.012,0.396c2.684,-0.008 5.105,-0.429 7.259,-1.283c2.158,-0.842 3.983,-2.067 5.475,-3.663c1.496,-1.583 2.637,-3.537 3.429,-5.837c0.804,-2.304 1.196,-4.929 1.187,-7.879c-0.004,-3.038 -0.379,-5.629 -1.1,-7.759c-0.733,-2.129 -1.7,-3.858 -2.908,-5.183" style="fill:#fff;fill-rule:nonzero;"/><path d="M727.035,498.169c0.104,-0.929 0.241,-1.8 0.408,-2.612c0.162,-0.805 0.367,-1.517 0.592,-2.134c0.229,-0.612 0.487,-1.016 0.766,-1.216c0.459,-0.367 0.979,-0.621 1.546,-0.775c0.571,-0.15 1.146,-0.23 1.738,-0.23c0.858,-0.004 1.604,0.284 2.22,0.867c0.621,0.571 1.13,1.304 1.534,2.196c0.4,0.9 0.721,1.875 0.954,2.933c0.229,1.063 0.408,2.084 0.542,3.075l-10.455,0.529c0,-0.829 0.046,-1.712 0.155,-2.633m17.979,15.167c-0.909,0.35 -1.913,0.696 -3.025,1.025c-1.109,0.337 -2.275,0.616 -3.492,0.85c-1.217,0.237 -2.383,0.358 -3.496,0.362c-1.35,0.004 -2.55,-0.229 -3.579,-0.691c-1.037,-0.455 -1.892,-1.092 -2.575,-1.905c-0.679,-0.808 -1.192,-1.775 -1.533,-2.895c-0.342,-1.121 -0.517,-2.346 -0.517,-3.671l-0.004,-1.442l10.5,-0.821c1.608,-0.137 2.975,-0.296 4.121,-0.479c1.137,-0.187 2.1,-0.408 2.883,-0.654c0.788,-0.25 1.429,-0.542 1.921,-0.875c0.496,-0.333 0.896,-0.704 1.2,-1.092l-0,-0.446c-0.467,-2.716 -1.167,-4.983 -2.096,-6.808c-0.929,-1.804 -2.021,-3.258 -3.275,-4.35c-1.25,-1.087 -2.625,-1.862 -4.125,-2.325c-1.487,-0.458 -3.046,-0.683 -4.65,-0.679c-2.317,0.004 -4.467,0.342 -6.471,0.996c-2.004,0.675 -3.746,1.733 -5.216,3.196c-1.484,1.466 -2.638,3.387 -3.463,5.775c-0.829,2.379 -1.237,5.279 -1.233,8.687c0.008,3.046 0.379,5.629 1.112,7.767c0.725,2.133 1.721,3.858 2.971,5.179c1.25,1.321 2.733,2.275 4.446,2.862c1.717,0.592 3.571,0.884 5.579,0.88c1.692,-0.005 3.342,-0.213 4.946,-0.63c1.604,-0.42 3.117,-0.966 4.55,-1.649c1.442,-0.684 2.775,-1.43 4.021,-2.238c1.254,-0.821 2.379,-1.629 3.396,-2.425l-0.788,-2.429c-0.496,0.262 -1.196,0.579 -2.108,0.925" style="fill:#fff;fill-rule:nonzero;"/><path d="M774.242,514.699c-0.65,0.092 -1.309,0.163 -1.971,0.229c-0.663,0.071 -1.292,0.129 -1.896,0.179c-0.6,0.05 -1.083,0.08 -1.454,0.084c-1.388,-0 -2.292,-0.409 -2.713,-1.213c-0.416,-0.808 -0.625,-1.825 -0.629,-3.05l-0.041,-19.116c1.233,-0.067 2.45,-0.175 3.65,-0.3c1.02,-0.109 2.066,-0.213 3.15,-0.338c1.079,-0.117 2.004,-0.242 2.77,-0.379l0.413,-3.721l-10.038,0.025l-0.158,-5.958l-2.583,0.008l-10.259,7.371l0.005,2.088l3.562,1.179l0.054,23.337c0,1.384 0.196,2.509 0.579,3.367c0.392,0.862 0.909,1.533 1.542,2.008c0.629,0.479 1.346,0.796 2.146,0.963c0.808,0.162 1.625,0.246 2.462,0.241c1.071,-0.004 2.217,-0.133 3.421,-0.4c1.2,-0.275 2.375,-0.612 3.529,-1.025c1.163,-0.425 2.263,-0.891 3.313,-1.404c1.046,-0.521 1.971,-1.037 2.767,-1.562l-0.005,-2.842c-0.433,0.071 -0.97,0.15 -1.616,0.229" style="fill:#fff;fill-rule:nonzero;"/><path d="M796.428,487.019c-0.458,0.166 -0.916,0.475 -1.383,0.921c-0.458,0.454 -0.9,0.937 -1.317,1.466c-0.412,0.529 -0.795,1.067 -1.154,1.621c-0.354,0.546 -0.65,1.017 -0.9,1.413l-0.041,-0l-0.85,-5.405l-8.505,0.021l0.075,33.954l9.48,-0.025l-0.055,-24.375c0.459,-0.537 0.888,-0.97 1.267,-1.316c0.388,-0.35 0.767,-0.646 1.133,-0.875c0.371,-0.229 0.771,-0.396 1.204,-0.496c0.426,-0.108 0.926,-0.15 1.48,-0.15c0.77,-0.004 1.566,0.071 2.383,0.237c0.821,0.163 1.592,0.38 2.337,0.642l1.046,-8.396c-1.2,0.004 -2.333,0.05 -3.4,0.138c-1.062,0.079 -1.996,0.296 -2.8,0.625" style="fill:#fff;fill-rule:nonzero;"/><path d="M807.277,474.08l5.937,6.342l5.954,-6.371l-5.983,-6.341l-5.908,6.37Z" style="fill:#fff;fill-rule:nonzero;"/><path d="M808.727,520.94l-0.075,-33.946l9.484,-0.021l0.075,33.946l-9.484,0.021Z" style="fill:#fff;"/><path d="M836.637,497.887c0.1,-0.93 0.241,-1.8 0.408,-2.613c0.163,-0.804 0.367,-1.517 0.592,-2.133c0.233,-0.613 0.487,-1.017 0.766,-1.217c0.459,-0.367 0.98,-0.621 1.55,-0.775c0.567,-0.15 1.142,-0.229 1.734,-0.229c0.858,-0 1.604,0.283 2.221,0.867c0.616,0.57 1.129,1.304 1.533,2.195c0.4,0.9 0.721,1.875 0.954,2.934c0.229,1.062 0.408,2.083 0.542,3.075l-10.454,0.529c-0,-0.829 0.045,-1.713 0.154,-2.633m17.979,15.166c-0.904,0.35 -1.913,0.696 -3.025,1.025c-1.113,0.338 -2.275,0.617 -3.492,0.85c-1.212,0.238 -2.383,0.359 -3.496,0.363c-1.35,0.004 -2.55,-0.229 -3.579,-0.692c-1.037,-0.454 -1.892,-1.092 -2.575,-1.904c-0.679,-0.808 -1.192,-1.775 -1.533,-2.896c-0.346,-1.121 -0.517,-2.346 -0.517,-3.671l-0.004,-1.441l10.5,-0.821c1.604,-0.138 2.975,-0.296 4.121,-0.479c1.137,-0.188 2.1,-0.409 2.883,-0.655c0.788,-0.25 1.429,-0.541 1.921,-0.875c0.5,-0.333 0.896,-0.704 1.204,-1.091l-0.004,-0.446c-0.467,-2.717 -1.167,-4.983 -2.096,-6.808c-0.929,-1.805 -2.021,-3.259 -3.275,-4.35c-1.25,-1.088 -2.625,-1.863 -4.121,-2.325c-1.491,-0.459 -3.05,-0.684 -4.65,-0.68c-2.321,0.005 -4.471,0.342 -6.475,0.996c-2,0.675 -3.745,1.734 -5.216,3.196c-1.484,1.467 -2.638,3.388 -3.459,5.775c-0.833,2.379 -1.246,5.279 -1.237,8.688c0.008,3.045 0.379,5.629 1.112,7.766c0.721,2.134 1.721,3.859 2.971,5.179c1.25,1.321 2.733,2.275 4.446,2.863c1.717,0.592 3.571,0.883 5.579,0.879c1.692,-0.004 3.342,-0.212 4.946,-0.629c1.604,-0.421 3.117,-0.967 4.55,-1.65c1.442,-0.683 2.775,-1.429 4.021,-2.238c1.254,-0.82 2.379,-1.629 3.396,-2.425l-0.788,-2.429c-0.5,0.263 -1.196,0.579 -2.108,0.925" style="fill:#fff;fill-rule:nonzero;"/><path d="M886.655,510.94c-0.516,1.967 -1.041,3.237 -1.566,3.8c-0.517,0.496 -1.275,0.867 -2.263,1.1c-0.983,0.229 -2.175,0.35 -3.558,0.354c-0.713,0 -1.463,-0.037 -2.246,-0.125c-0.792,-0.079 -1.508,-0.2 -2.154,-0.358l-0.05,-22.342c0.858,-0.404 1.812,-0.708 2.846,-0.95c1.029,-0.237 2.041,-0.354 3.029,-0.358c2.004,-0.004 3.629,0.908 4.862,2.741c1.238,1.834 1.863,4.675 1.871,8.513c0.009,3.108 -0.25,5.646 -0.771,7.625m6.613,-21.146c-1.204,-1.321 -2.592,-2.279 -4.163,-2.862c-1.579,-0.596 -3.212,-0.884 -4.912,-0.88c-1.917,0.005 -3.646,0.367 -5.2,1.1c-1.554,0.734 -2.979,1.584 -4.271,2.542c0,-0.625 0.008,-1.237 0.033,-1.837c0,-0.53 0.009,-1.105 0.025,-1.738c0.013,-0.625 0.021,-1.242 0.017,-1.837l-0.046,-21.2l-9.479,2.008l0.125,54.467c2.467,0.687 4.975,1.17 7.517,1.441c2.546,0.275 4.883,0.404 7.012,0.4c2.684,-0.008 5.104,-0.429 7.259,-1.283c2.158,-0.842 3.983,-2.067 5.475,-3.663c1.495,-1.583 2.637,-3.537 3.429,-5.837c0.804,-2.304 1.196,-4.929 1.187,-7.879c-0.004,-3.038 -0.379,-5.629 -1.1,-7.759c-0.733,-2.133 -1.7,-3.858 -2.908,-5.183" style="fill:#fff;fill-rule:nonzero;"/><path d="M830.321,290.509c-0.058,-26.792 -20.346,-48.454 -45.312,-48.388c-24.971,0.063 -45.159,21.829 -45.1,48.621c0.062,26.788 20.346,48.45 45.316,48.383c24.967,-0.062 45.155,-21.829 45.096,-48.616" style="fill:#fff;fill-rule:nonzero;"/><path d="M928.008,260.931c-67.055,-28.946 -209.03,-116.366 -250.284,-2.921c-1.716,4.705 16.125,2.425 18.142,-3.12c34.446,-94.73 160.192,-10.234 217.3,14.42c4.529,1.955 21.237,-5.616 14.841,-8.379" style="fill:#fff;fill-rule:nonzero;"/><path d="M296.313,285.121c1.287,-3.334 1.925,-6.909 1.917,-10.738c-0.009,-3.666 -0.559,-6.95 -1.65,-9.854c-1.092,-2.912 -2.755,-5.379 -4.984,-7.4c-2.225,-2.021 -5.046,-3.575 -8.462,-4.679c-3.417,-1.096 -7.417,-1.642 -12.025,-1.629c-3.775,0.008 -7.625,0.1 -11.559,0.279c-3.925,0.171 -7.516,0.404 -10.775,0.692l0.188,84.795l10.779,-0.029l-0.175,-79.387c1.604,-0.167 2.946,-0.3 4.033,-0.379c1.088,-0.092 2.38,-0.134 3.88,-0.138c2.841,-0.008 5.454,0.346 7.833,1.063c2.379,0.712 4.396,1.812 6.054,3.312c1.663,1.488 2.954,3.4 3.892,5.733c0.937,2.325 1.408,5.096 1.412,8.317c0.013,4.325 -0.533,7.833 -1.637,10.529c-1.109,2.696 -2.592,4.85 -4.446,6.459c-1.858,1.616 -4.042,2.829 -6.546,3.641c-2.508,0.809 -5.158,1.467 -7.946,1.979l-2.25,0.417l0.629,3.658l0.7,0c5.742,-0.016 10.684,-0.733 14.842,-2.158c4.163,-1.429 7.596,-3.367 10.308,-5.817c2.705,-2.445 4.705,-5.337 5.988,-8.666" style="fill:#fff;fill-rule:nonzero;"/><path d="M342.588,327.442c-2.812,1.009 -5.9,1.509 -9.262,1.517c-2.171,0.004 -4.158,-0.358 -5.971,-1.1c-1.817,-0.75 -3.379,-1.837 -4.696,-3.279c-1.329,-1.438 -2.362,-3.208 -3.121,-5.317c-0.754,-2.104 -1.129,-4.487 -1.137,-7.154c-0.004,-1.829 0.129,-3.533 0.412,-5.121c0.28,-1.575 0.771,-3.075 1.467,-4.496c0.692,-1.416 1.621,-2.775 2.783,-4.083c1.155,-1.304 2.621,-2.629 4.371,-3.967c1.609,2.217 3.317,4.546 5.134,6.98c1.812,2.437 3.708,4.887 5.679,7.35c1.975,2.462 4.004,4.912 6.104,7.354c2.096,2.433 4.208,4.725 6.333,6.887c-2.579,1.946 -5.275,3.429 -8.096,4.429m-15.458,-64.787c0.667,-1.604 1.533,-2.917 2.588,-3.921c1.062,-1 2.25,-1.721 3.562,-2.162c1.321,-0.45 2.625,-0.675 3.917,-0.675c2.996,-0.009 5.404,0.895 7.221,2.725c1.812,1.82 2.72,4.4 2.729,7.725c0.004,2 -0.238,3.762 -0.721,5.287c-0.492,1.529 -1.288,2.958 -2.4,4.296c-1.104,1.329 -2.592,2.667 -4.45,4.008c-1.854,1.334 -4.179,2.775 -6.971,4.342c-0.154,-0.275 -0.321,-0.529 -0.504,-0.746c-0.179,-0.221 -0.35,-0.475 -0.504,-0.75c-1.767,-2.496 -3.113,-4.846 -4.05,-7.067c-0.934,-2.212 -1.404,-4.595 -1.409,-7.145c-0.008,-2.33 0.321,-4.305 0.992,-5.917m52.125,74.096c1.758,-0.279 3.208,-0.642 4.342,-1.088l-0.009,-3.75l-0.77,0.004c-2.746,0.009 -5.875,-1.162 -9.396,-3.516c-3.521,-2.346 -7.225,-5.346 -11.113,-8.996c3.667,-4.175 6.5,-8.55 8.504,-13.125c2.005,-4.592 3.005,-9.238 2.992,-13.95c-0.004,-1.108 -0.079,-2.271 -0.237,-3.496c-0.163,-1.221 -0.367,-2.221 -0.63,-2.996l-8.991,2.104c0.204,0.663 0.396,1.567 0.55,2.709c0.154,1.133 0.237,2.175 0.237,3.121c0.009,3.662 -0.458,7.429 -1.412,11.32c-0.942,3.884 -2.579,7.355 -4.896,10.409c-2.071,-2.1 -4.121,-4.3 -6.142,-6.6c-2.025,-2.292 -3.991,-4.592 -5.912,-6.892c-1.917,-2.292 -3.759,-4.55 -5.521,-6.767c-1.763,-2.216 -3.371,-4.316 -4.821,-6.312c2.788,-1.563 5.358,-3.163 7.704,-4.808c2.354,-1.638 4.375,-3.38 6.079,-5.209c1.7,-1.841 3.03,-3.8 3.98,-5.879c0.95,-2.087 1.425,-4.396 1.42,-6.954c-0.004,-2.058 -0.35,-4.008 -1.02,-5.863c-0.68,-1.854 -1.755,-3.491 -3.234,-4.904c-1.475,-1.408 -3.379,-2.529 -5.708,-3.35c-2.321,-0.829 -5.146,-1.241 -8.454,-1.233c-2.896,0.008 -5.546,0.521 -7.942,1.525c-2.408,1.004 -4.471,2.379 -6.196,4.129c-1.733,1.758 -3.071,3.821 -4.016,6.217c-0.955,2.383 -1.43,4.991 -1.425,7.821c0.008,3.608 0.558,6.879 1.654,9.82c1.091,2.934 2.675,5.892 4.754,8.888c-5.529,3.175 -9.646,6.771 -12.35,10.767c-2.708,4.004 -4.05,8.825 -4.038,14.483c0.009,3.117 0.48,6.042 1.413,8.779c0.937,2.746 2.329,5.154 4.167,7.233c1.841,2.071 4.133,3.721 6.875,4.93c2.745,1.216 5.95,1.82 9.62,1.808c4.392,-0.008 8.725,-0.896 12.984,-2.65c4.262,-1.767 8.404,-4.283 12.433,-7.567c3.367,3.1 6.667,5.588 9.904,7.467c3.234,1.871 6.325,2.804 9.271,2.796c1.813,-0.004 3.592,-0.146 5.35,-0.425" style="fill:#fff;fill-rule:nonzero;"/><path d="M436.9,311.386c-0.008,-3.775 -0.546,-6.987 -1.617,-9.65c-1.062,-2.662 -2.475,-4.925 -4.237,-6.808c-1.763,-1.883 -3.758,-3.475 -5.979,-4.767c-2.225,-1.3 -4.509,-2.458 -6.834,-3.479c-2.329,-1.021 -4.608,-2.017 -6.837,-2.979c-2.217,-0.967 -4.213,-2.054 -5.975,-3.271c-1.758,-1.217 -3.171,-2.642 -4.233,-4.279c-1.067,-1.629 -1.6,-3.642 -1.605,-6.025c-0.008,-2.996 0.325,-5.233 0.992,-6.704c0.671,-1.471 1.467,-2.592 2.396,-3.371c0.879,-0.667 2.142,-1.175 3.796,-1.517c1.654,-0.337 3.566,-0.504 5.741,-0.508c2.792,-0.008 5.788,0.392 8.996,1.183c3.209,0.796 6.284,1.746 9.238,2.85l2.379,-10.075c-2.792,-0.608 -5.583,-1.1 -8.379,-1.479c-2.796,-0.383 -5.788,-0.571 -8.992,-0.562c-3.983,0.012 -7.537,0.695 -10.667,2.066c-3.12,1.367 -5.754,3.125 -7.895,5.263c-2.142,2.146 -3.775,4.537 -4.909,7.171c-1.129,2.637 -1.691,5.266 -1.687,7.866c0.008,3.775 0.541,6.967 1.612,9.563c1.063,2.608 2.479,4.837 4.242,6.696c1.758,1.854 3.754,3.4 5.979,4.645c2.229,1.238 4.492,2.371 6.796,3.392c2.3,1.017 4.567,2.008 6.792,2.975c2.225,0.963 4.216,2.083 5.975,3.363c1.762,1.262 3.175,2.8 4.241,4.604c1.067,1.791 1.596,4 1.6,6.612c0.004,1.996 -0.116,3.7 -0.375,5.117c-0.254,1.412 -0.596,2.596 -1.033,3.537c-0.442,0.946 -0.946,1.7 -1.513,2.246c-0.566,0.563 -1.158,1.034 -1.783,1.421c-1.129,0.733 -2.592,1.342 -4.375,1.846c-1.779,0.504 -3.912,0.758 -6.396,0.762c-1.808,0.005 -3.687,-0.25 -5.621,-0.77c-1.945,-0.525 -3.816,-1.171 -5.629,-1.946c-1.812,-0.771 -3.521,-1.613 -5.125,-2.517c-1.604,-0.921 -2.979,-1.787 -4.116,-2.617l-3.855,9.996c3.105,1.884 6.434,3.371 9.971,4.467c3.55,1.104 7.571,1.646 12.067,1.633c4.292,-0.012 8.104,-0.766 11.433,-2.279c3.334,-1.496 6.146,-3.479 8.438,-5.925c2.304,-2.442 4.037,-5.208 5.221,-8.3c1.187,-3.075 1.77,-6.225 1.762,-9.446" style="fill:#fff;fill-rule:nonzero;"/><path d="M987.147,193.573c-52.179,-11.633 -100.829,-36.596 -147.879,-60.733c-39.442,-20.229 -80.221,-41.154 -123.158,-54.346c-60.546,-18.604 -123.967,-18.15 -236.696,44.529c-41.271,22.95 -82.084,43.875 -127.613,47.7c-12.404,1.05 -25.083,1.275 -37.341,1.496c-16.096,0.288 -32.738,0.588 -49.138,2.729c-28.071,3.667 -48.837,14.804 -61.721,33.1c-13.337,18.954 -17.729,44.8 -13.037,76.817c0.466,3.183 2.925,5.171 6.183,5.171c0.467,-0 0.946,-0.038 1.438,-0.121c3.966,-0.671 7.683,-4.05 7.029,-8.554c-6.296,-42.959 2.383,-69.425 27.312,-83.288c20.792,-11.583 47.6,-11.971 71.254,-12.316l7.775,-0.13c28.78,-0.595 54.746,-1.645 81.059,-8.558c32.941,-8.65 63.654,-25.792 93.354,-42.371l7.042,-3.925c38.966,-21.675 77.458,-41.712 119.829,-48.662c49.441,-8.113 99.229,8.316 137.075,23.537c29.483,11.854 58.371,26.713 86.304,41.084c46.475,23.9 94.529,48.62 146.8,60.275c4.4,0.962 8.496,-2.484 9.221,-6.225c0.562,-2.896 -0.796,-6.25 -5.092,-7.209" style="fill:#fff;fill-rule:nonzero;"/></svg>